<svg width="2918" height="1589" xmlns="http://www.w3.org/2000/svg" xmlns:xlink="http://www.w3.org/1999/xlink" xml:space="preserve" overflow="hidden"><defs><clipPath id="clip0"><rect x="2037" y="1626" width="2918" height="1589"/></clipPath></defs><g clip-path="url(#clip0)" transform="translate(-2037 -1626)"><rect x="2038" y="1627" width="2915" height="1586" fill="#FFFFFF"/><g><path d="M2312.5 2785.59 4526.5 2785.59M2312.5 2626.59 4526.5 2626.59M2312.5 2467.58 4526.5 2467.58M2312.5 2308.58 4526.5 2308.58M2312.5 2148.57 4526.5 2148.57M2312.5 1989.57 4526.5 1989.57M2312.5 1830.5 4526.5 1830.5" stroke="#D9D9D9" stroke-width="3.4375" stroke-linejoin="round" stroke-miterlimit="10" fill="none"/></g><g><path d="M2530.08 2929.1 2698.09 2929.1 2698.09 2945 2530.08 2945ZM2731.09 2929.1 2899.09 2929.1 2899.09 2945 2731.09 2945ZM2933.1 2865.09 3100.1 2865.09 3100.1 2945 2933.1 2945ZM3335.11 2865.09 3503.11 2865.09 3503.11 2945 3335.11 2945ZM3537.12 2356.08 3704.12 2356.08 3704.12 2945 3537.12 2945ZM3738.12 2356.08 3906.13 2356.08 3906.13 2945 3738.12 2945ZM3939.13 2802.09 4107.13 2802.09 4107.13 2945 3939.13 2945Z" fill="#156082"/></g><g><path d="M3134.1 2897.09 3302.11 2897.09 3302.11 2945 3134.1 2945ZM3335.11 2420.08 3503.11 2420.08 3503.11 2865.09 3335.11 2865.09ZM3537.12 1990.07 3704.12 1990.07 3704.12 2356.08 3537.12 2356.08ZM3738.12 2069.07 3906.13 2069.07 3906.13 2356.08 3738.12 2356.08ZM3939.13 2674.09 4107.13 2674.09 4107.13 2802.09 3939.13 2802.09ZM4140.14 2770.09 4308.14 2770.09 4308.14 2945 4140.14 2945ZM4342.14 2929.1 4509.15 2929.1 4509.15 2945 4342.14 2945Z" fill="#E97132"/></g><g><path d="M2312.5 2945.5 4526.5 2945.5" stroke="#D9D9D9" stroke-width="3.4375" stroke-linejoin="round" stroke-miterlimit="10" fill="none" fill-rule="evenodd"/></g><g><text fill="#F2F2F2" font-family="Aptos Narrow,Aptos Narrow_MSFontService,sans-serif" font-weight="400" font-stretch="semi-condensed" font-size="55" transform="matrix(1 0 0 1 3002.7 2938)">5</text></g><g><text fill="#F2F2F2" font-family="Aptos Narrow,Aptos Narrow_MSFontService,sans-serif" font-weight="400" font-stretch="semi-condensed" font-size="55" transform="matrix(1 0 0 1 3405.29 2938)">5</text></g><g><text fill="#F2F2F2" font-family="Aptos Narrow,Aptos Narrow_MSFontService,sans-serif" font-weight="400" font-stretch="semi-condensed" font-size="55" transform="matrix(1 0 0 1 3592.66 2429)">37</text></g><g><text fill="#F2F2F2" font-family="Aptos Narrow,Aptos Narrow_MSFontService,sans-serif" font-weight="400" font-stretch="semi-condensed" font-size="55" transform="matrix(1 0 0 1 3793.95 2429)">37</text></g><g><text fill="#F2F2F2" font-family="Aptos Narrow,Aptos Narrow_MSFontService,sans-serif" font-weight="400" font-stretch="semi-condensed" font-size="55" transform="matrix(1 0 0 1 4009.18 2874)">9</text></g><g><text fill="#F2F2F2" font-family="Aptos Narrow,Aptos Narrow_MSFontService,sans-serif" font-weight="400" font-stretch="semi-condensed" font-size="55" transform="matrix(1 0 0 1 4411.77 3018)">0</text></g><g><text fill="#FFFFFF" font-family="Aptos Narrow,Aptos Narrow_MSFontService,sans-serif" font-weight="400" font-stretch="semi-condensed" font-size="55" transform="matrix(1 0 0 1 3391.36 2492)">28</text></g><g><text fill="#FFFFFF" font-family="Aptos Narrow,Aptos Narrow_MSFontService,sans-serif" font-weight="400" font-stretch="semi-condensed" font-size="55" transform="matrix(1 0 0 1 3592.66 2062)">23</text></g><g><text fill="#FFFFFF" font-family="Aptos Narrow,Aptos Narrow_MSFontService,sans-serif" font-weight="400" font-stretch="semi-condensed" font-size="55" transform="matrix(1 0 0 1 3793.95 2142)">18</text></g><g><text fill="#FFFFFF" font-family="Aptos Narrow,Aptos Narrow_MSFontService,sans-serif" font-weight="400" font-stretch="semi-condensed" font-size="55" transform="matrix(1 0 0 1 4009.18 2747)">8</text></g><g><text fill="#FFFFFF" font-family="Aptos Narrow,Aptos Narrow_MSFontService,sans-serif" font-weight="400" font-stretch="semi-condensed" font-size="55" transform="matrix(1 0 0 1 4196.55 2843)">11</text></g><g><text fill="#595959" font-family="Aptos Narrow,Aptos Narrow_MSFontService,sans-serif" font-weight="400" font-stretch="semi-condensed" font-size="64" transform="matrix(1 0 0 1 2220.33 2962)">0</text></g><g><text fill="#595959" font-family="Aptos Narrow,Aptos Narrow_MSFontService,sans-serif" font-weight="400" font-stretch="semi-condensed" font-size="64" transform="matrix(1 0 0 1 2187.81 2803)">10</text></g><g><text fill="#595959" font-family="Aptos Narrow,Aptos Narrow_MSFontService,sans-serif" font-weight="400" font-stretch="semi-condensed" font-size="64" transform="matrix(1 0 0 1 2187.81 2644)">20</text></g><g><text fill="#595959" font-family="Aptos Narrow,Aptos Narrow_MSFontService,sans-serif" font-weight="400" font-stretch="semi-condensed" font-size="64" transform="matrix(1 0 0 1 2187.81 2485)">30</text></g><g><text fill="#595959" font-family="Aptos Narrow,Aptos Narrow_MSFontService,sans-serif" font-weight="400" font-stretch="semi-condensed" font-size="64" transform="matrix(1 0 0 1 2187.81 2326)">40</text></g><g><text fill="#595959" font-family="Aptos Narrow,Aptos Narrow_MSFontService,sans-serif" font-weight="400" font-stretch="semi-condensed" font-size="64" transform="matrix(1 0 0 1 2187.81 2166)">50</text></g><g><text fill="#595959" font-family="Aptos Narrow,Aptos Narrow_MSFontService,sans-serif" font-weight="400" font-stretch="semi-condensed" font-size="64" transform="matrix(1 0 0 1 2187.81 2007)">60</text></g><g><text fill="#595959" font-family="Aptos Narrow,Aptos Narrow_MSFontService,sans-serif" font-weight="400" font-stretch="semi-condensed" font-size="64" transform="matrix(1 0 0 1 2187.81 1848)">70</text></g><g><text fill="#595959" font-family="Aptos Narrow,Aptos Narrow_MSFontService,sans-serif" font-weight="400" font-stretch="semi-condensed" font-size="64" transform="matrix(1 0 0 1 2396.48 3045)">0</text></g><g><text fill="#595959" font-family="Aptos Narrow,Aptos Narrow_MSFontService,sans-serif" font-weight="400" font-stretch="semi-condensed" font-size="64" transform="matrix(1 0 0 1 2581.52 3045)">20</text></g><g><text fill="#595959" font-family="Aptos Narrow,Aptos Narrow_MSFontService,sans-serif" font-weight="400" font-stretch="semi-condensed" font-size="64" transform="matrix(1 0 0 1 2782.82 3045)">40</text></g><g><text fill="#595959" font-family="Aptos Narrow,Aptos Narrow_MSFontService,sans-serif" font-weight="400" font-stretch="semi-condensed" font-size="64" transform="matrix(1 0 0 1 2984.11 3045)">60</text></g><g><text fill="#595959" font-family="Aptos Narrow,Aptos Narrow_MSFontService,sans-serif" font-weight="400" font-stretch="semi-condensed" font-size="64" transform="matrix(1 0 0 1 3185.41 3045)">80</text></g><g><text fill="#595959" font-family="Aptos Narrow,Aptos Narrow_MSFontService,sans-serif" font-weight="400" font-stretch="semi-condensed" font-size="64" transform="matrix(1 0 0 1 3370.45 3045)">100</text></g><g><text fill="#595959" font-family="Aptos Narrow,Aptos Narrow_MSFontService,sans-serif" font-weight="400" font-stretch="semi-condensed" font-size="64" transform="matrix(1 0 0 1 3571.74 3045)">120</text></g><g><text fill="#595959" font-family="Aptos Narrow,Aptos Narrow_MSFontService,sans-serif" font-weight="400" font-stretch="semi-condensed" font-size="64" transform="matrix(1 0 0 1 3773.04 3045)">140</text></g><g><text fill="#595959" font-family="Aptos Narrow,Aptos Narrow_MSFontService,sans-serif" font-weight="400" font-stretch="semi-condensed" font-size="64" transform="matrix(1 0 0 1 3974.34 3045)">160</text></g><g><text fill="#595959" font-family="Aptos Narrow,Aptos Narrow_MSFontService,sans-serif" font-weight="400" font-stretch="semi-condensed" font-size="64" transform="matrix(1 0 0 1 4175.63 3045)">180</text></g><g><text fill="#595959" font-family="Aptos Narrow,Aptos Narrow_MSFontService,sans-serif" font-weight="400" font-stretch="semi-condensed" font-size="64" transform="matrix(1 0 0 1 4376.93 3045)">200</text></g><g><text fill="#595959" font-family="Aptos Narrow,Aptos Narrow_MSFontService,sans-serif" font-weight="400" font-stretch="semi-condensed" font-size="64" transform="matrix(6.12323e-17 -1 1 6.12323e-17 2155.73 2515)">frequency</text></g><g><text fill="#595959" font-family="Aptos Narrow,Aptos Narrow_MSFontService,sans-serif" font-weight="400" font-stretch="semi-condensed" font-size="64" transform="matrix(1 0 0 1 3332.08 3137)">degree</text></g><g><text fill="#595959" font-family="Aptos Narrow,Aptos Narrow_MSFontService,sans-serif" font-weight="400" font-stretch="semi-condensed" font-size="83" transform="matrix(1 0 0 1 2919.57 1738)">Multiplex graph: degree distribution</text></g><g><rect x="4605" y="2421" width="35" height="35" fill="#E97132"/></g><g><text fill="#595959" font-family="Aptos Narrow,Aptos Narrow_MSFontService,sans-serif" font-weight="400" font-stretch="semi-condensed" font-size="64" transform="matrix(1 0 0 1 4655.86 2455)">YO nodes</text></g><g><rect x="4605" y="2526" width="35" height="35" fill="#156082"/></g><g><text fill="#595959" font-family="Aptos Narrow,Aptos Narrow_MSFontService,sans-serif" font-weight="400" font-stretch="semi-condensed" font-size="64" transform="matrix(1 0 0 1 4655.86 2561)">HD nodes</text></g><rect x="2038.5" y="1627.5" width="2915" height="1586" stroke="#D9D9D9" stroke-width="3.4375" stroke-linejoin="round" stroke-miterlimit="10" fill="none"/></g></svg>